<svg width="1344" height="214" viewBox="0 0 1344 214" fill="none" xmlns="http://www.w3.org/2000/svg">
<path d="M41.0405 98.77L69.1705 211H107.161V2.77998H66.8506V57.59L67.4306 101.96H66.8506L43.9405 2.77998H0.730547V211H41.0405V141.4L40.4606 98.77H41.0405ZM120.525 2.77998V211H204.045V171.27H164.315V123.42H199.115V83.69H164.315V42.51H204.045V2.77998H120.525ZM295.425 211H341.535L364.445 2.77998H321.525L316.015 80.21L313.695 122.26H313.115L304.995 2.77998H272.515L264.975 122.26H264.395L261.785 79.92L256.275 2.77998H209.875L232.785 211H278.895L287.015 99.93H287.595L295.425 211ZM449.986 98.77L478.116 211H516.106V2.77998H475.796V57.59L476.376 101.96H475.796L452.886 2.77998H409.676V211H449.986V141.4L449.406 98.77H449.986ZM581.961 0.459997C549.191 0.459997 528.311 19.6 528.311 48.6V165.18C528.311 194.18 549.191 213.32 581.961 213.32C614.731 213.32 635.611 194.18 635.611 165.18V48.6C635.611 19.6 614.731 0.459997 581.961 0.459997ZM581.961 37.87C588.051 37.87 590.951 42.51 590.951 49.76V164.02C590.951 171.27 588.051 175.91 581.961 175.91C575.871 175.91 572.681 171.27 572.681 164.02V49.76C572.681 42.51 575.871 37.87 581.961 37.87ZM705.56 164.02C705.56 171.27 702.95 175.91 697.15 175.91C691.06 175.91 688.45 171.27 688.45 164.02V133.57H644.95V165.18C644.95 194.47 663.8 213.32 696.57 213.32C729.34 213.32 750.22 194.47 750.22 165.18V138.21C750.22 119.94 744.13 109.79 730.21 100.51L696.28 76.44C691.64 72.96 689.61 69.48 689.61 62.23V49.76C689.61 42.51 692.22 37.87 698.31 37.87C704.11 37.87 706.72 42.51 706.72 49.76V76.44H749.93V48.6C749.93 19.31 731.08 0.459997 698.31 0.459997C665.54 0.459997 644.95 19.31 644.95 48.6V70.93C644.95 89.2 651.04 99.35 664.96 108.63L698.89 132.99C703.53 136.47 705.56 139.66 705.56 147.2V164.02ZM856.623 42.51V2.77998H753.963V42.51H782.963V211H827.622V42.51H856.623ZM872.953 2.77998L845.113 211H887.163L891.223 169.24H912.973L917.323 211H960.823L932.693 2.77998H872.953ZM898.183 98.77L901.663 59.62H902.243L906.013 98.77L909.493 133.57H894.703L898.183 98.77ZM968.436 2.77998V211H1050.51V171.27H1012.23V2.77998H968.436ZM1162.61 81.37V48.6C1162.61 19.6 1143.47 0.459997 1110.7 0.459997C1078.22 0.459997 1057.05 19.6 1057.05 48.6V166.63C1057.05 196.21 1075.03 213.32 1098.81 213.32C1110.41 213.32 1117.95 208.39 1121.72 202.01V211H1162.61V96.16H1109.54V133.57H1119.11V164.02C1119.11 171.27 1116.5 175.91 1110.41 175.91C1104.32 175.91 1101.42 171.27 1101.42 164.02V49.76C1101.42 42.51 1104.32 37.87 1110.41 37.87C1116.5 37.87 1119.11 42.51 1119.11 49.76V81.37H1162.61ZM1220.41 2.77998H1175.46V211H1220.41V2.77998ZM1256.13 2.77998L1228.29 211H1270.34L1274.4 169.24H1296.15L1300.5 211H1344L1315.87 2.77998H1256.13ZM1281.36 98.77L1284.84 59.62H1285.42L1289.19 98.77L1292.67 133.57H1277.88L1281.36 98.77Z" fill="white"/>
</svg>
