<svg width="1418" height="348" viewBox="0 0 1418 348" fill="none" xmlns="http://www.w3.org/2000/svg">
<path d="M17.5781 53.668C11.0859 53.668 6.52734 51.3945 3.90234 46.8477C1.30078 42.3008 0 35.8203 0 27.4062C0 18.9922 1.30078 12.5 3.90234 7.92969C6.52734 3.35938 11.0859 1.07422 17.5781 1.07422C24.0703 1.07422 28.6289 3.35938 31.2539 7.92969C33.8555 12.5 35.1562 18.9922 35.1562 27.4062C35.1562 35.8203 33.8438 42.3008 31.2188 46.8477C28.6172 51.3945 24.0703 53.668 17.5781 53.668ZM23.4492 40.8359C24.3633 37.7422 24.8203 33.2656 24.8203 27.4062C24.8203 21.2656 24.3516 16.7188 23.4141 13.7656C22.5 10.8125 20.5547 9.33594 17.5781 9.33594C14.6016 9.33594 12.6328 10.8125 11.6719 13.7656C10.7109 16.7188 10.2305 21.2656 10.2305 27.4062C10.2305 33.2656 10.7109 37.7539 11.6719 40.8711C12.6328 43.9648 14.6016 45.5117 17.5781 45.5117C20.5547 45.5117 22.5117 43.9531 23.4492 40.8359Z" fill="white"/>
<path d="M56.5312 53.8789C52.7109 53.8789 49.2773 52.7539 46.2305 50.5039C43.1836 48.2305 41.4375 44.9258 40.9922 40.5898H50.9766C51.2109 42.0898 51.8438 43.3086 52.875 44.2461C53.9062 45.1836 55.2773 45.6523 56.9883 45.6523C60.293 45.6523 62.6133 43.8242 63.9492 40.168C64.6758 38.1523 65.1328 35.2109 65.3203 31.3438C64.4062 32.4922 63.4336 33.3711 62.4023 33.9805C60.5273 35.1055 58.2188 35.668 55.4766 35.668C51.4219 35.668 47.8242 34.2734 44.6836 31.4844C41.543 28.6719 39.9727 24.6289 39.9727 19.3555C39.9727 13.8945 41.543 9.47656 44.6836 6.10156C47.8477 2.70312 51.9492 1.00391 56.9883 1.00391C64.7461 1.00391 70.0664 4.4375 72.9492 11.3047C74.5898 15.1953 75.4102 20.3164 75.4102 26.668C75.4102 32.832 74.625 37.9766 73.0547 42.1016C70.0547 49.9531 64.5469 53.8789 56.5312 53.8789ZM53.0156 10.8125C51.0938 12.3125 50.1328 14.8555 50.1328 18.4414C50.1328 21.4648 50.7422 23.7383 51.9609 25.2617C53.2031 26.7617 55.1016 27.5117 57.6562 27.5117C59.0391 27.5117 60.3398 27.1133 61.5586 26.3164C63.832 24.8633 64.9688 22.3438 64.9688 18.7578C64.9688 15.875 64.2891 13.5898 62.9297 11.9023C61.5938 10.2148 59.7539 9.37109 57.4102 9.37109C55.6992 9.37109 54.2344 9.85156 53.0156 10.8125Z" fill="white"/>
<path d="M96.7148 41.9258V52.4023H86.0625V41.9258H96.7148ZM86.0625 26.0703V15.5938H96.7148V26.0703H86.0625Z" fill="white"/>
<path d="M121.711 53.668C115.219 53.668 110.66 51.3945 108.035 46.8477C105.434 42.3008 104.133 35.8203 104.133 27.4062C104.133 18.9922 105.434 12.5 108.035 7.92969C110.66 3.35938 115.219 1.07422 121.711 1.07422C128.203 1.07422 132.762 3.35938 135.387 7.92969C137.988 12.5 139.289 18.9922 139.289 27.4062C139.289 35.8203 137.977 42.3008 135.352 46.8477C132.75 51.3945 128.203 53.668 121.711 53.668ZM127.582 40.8359C128.496 37.7422 128.953 33.2656 128.953 27.4062C128.953 21.2656 128.484 16.7188 127.547 13.7656C126.633 10.8125 124.688 9.33594 121.711 9.33594C118.734 9.33594 116.766 10.8125 115.805 13.7656C114.844 16.7188 114.363 21.2656 114.363 27.4062C114.363 33.2656 114.844 37.7539 115.805 40.8711C116.766 43.9648 118.734 45.5117 121.711 45.5117C124.688 45.5117 126.645 43.9531 127.582 40.8359Z" fill="white"/>
<path d="M161.789 53.668C155.297 53.668 150.738 51.3945 148.113 46.8477C145.512 42.3008 144.211 35.8203 144.211 27.4062C144.211 18.9922 145.512 12.5 148.113 7.92969C150.738 3.35938 155.297 1.07422 161.789 1.07422C168.281 1.07422 172.84 3.35938 175.465 7.92969C178.066 12.5 179.367 18.9922 179.367 27.4062C179.367 35.8203 178.055 42.3008 175.43 46.8477C172.828 51.3945 168.281 53.668 161.789 53.668ZM167.66 40.8359C168.574 37.7422 169.031 33.2656 169.031 27.4062C169.031 21.2656 168.562 16.7188 167.625 13.7656C166.711 10.8125 164.766 9.33594 161.789 9.33594C158.812 9.33594 156.844 10.8125 155.883 13.7656C154.922 16.7188 154.441 21.2656 154.441 27.4062C154.441 33.2656 154.922 37.7539 155.883 40.8711C156.844 43.9648 158.812 45.5117 161.789 45.5117C164.766 45.5117 166.723 43.9531 167.66 40.8359Z" fill="white"/>
<path d="M203.73 27.582H223.91V37.0742H203.73V27.582Z" fill="white"/>
<path d="M273.34 52.4023H263.074V17.2461H251.086V10.4258C254.25 10.2852 256.465 10.0742 257.73 9.79297C259.746 9.34766 261.387 8.45703 262.652 7.12109C263.52 6.20703 264.176 4.98828 264.621 3.46484C264.879 2.55078 265.008 1.87109 265.008 1.42578H273.34V52.4023Z" fill="white"/>
<path d="M309.48 52.4023H299.215V17.2461H287.227V10.4258C290.391 10.2852 292.605 10.0742 293.871 9.79297C295.887 9.34766 297.527 8.45703 298.793 7.12109C299.66 6.20703 300.316 4.98828 300.762 3.46484C301.02 2.55078 301.148 1.87109 301.148 1.42578H309.48V52.4023Z" fill="white"/>
<path d="M341.121 41.9258V52.4023H330.469V41.9258H341.121ZM330.469 26.0703V15.5938H341.121V26.0703H330.469Z" fill="white"/>
<path d="M360.07 11.5859C358.945 13.0859 358.406 15.0898 358.453 17.5977H349.102C349.195 15.0664 349.629 12.6641 350.402 10.3906C351.223 8.39844 352.512 6.55859 354.27 4.87109C355.582 3.67578 357.141 2.76172 358.945 2.12891C360.75 1.49609 362.965 1.17969 365.59 1.17969C370.465 1.17969 374.391 2.44531 377.367 4.97656C380.367 7.48438 381.867 10.8594 381.867 15.1016C381.867 18.1016 380.977 20.6328 379.195 22.6953C378.07 23.9844 376.898 24.8633 375.68 25.332C376.594 25.332 377.906 26.1172 379.617 27.6875C382.172 30.0547 383.449 33.2891 383.449 37.3906C383.449 41.7031 381.949 45.5 378.949 48.7812C375.973 52.0391 371.555 53.668 365.695 53.668C358.477 53.668 353.461 51.3125 350.648 46.6016C349.172 44.0938 348.352 40.8125 348.188 36.7578H358.031C358.031 38.7969 358.359 40.4844 359.016 41.8203C360.234 44.2812 362.449 45.5117 365.66 45.5117C367.629 45.5117 369.34 44.8438 370.793 43.5078C372.27 42.1484 373.008 40.2031 373.008 37.6719C373.008 34.3203 371.648 32.082 368.93 30.957C367.383 30.3242 364.945 30.0078 361.617 30.0078V22.8359C364.875 22.7891 367.148 22.4727 368.438 21.8867C370.664 20.9023 371.777 18.9102 371.777 15.9102C371.777 13.9648 371.203 12.3828 370.055 11.1641C368.93 9.94531 367.336 9.33594 365.273 9.33594C362.906 9.33594 361.172 10.0859 360.07 11.5859Z" fill="white"/>
<path d="M406.195 53.668C399.703 53.668 395.145 51.3945 392.52 46.8477C389.918 42.3008 388.617 35.8203 388.617 27.4062C388.617 18.9922 389.918 12.5 392.52 7.92969C395.145 3.35938 399.703 1.07422 406.195 1.07422C412.688 1.07422 417.246 3.35938 419.871 7.92969C422.473 12.5 423.773 18.9922 423.773 27.4062C423.773 35.8203 422.461 42.3008 419.836 46.8477C417.234 51.3945 412.688 53.668 406.195 53.668ZM412.066 40.8359C412.98 37.7422 413.438 33.2656 413.438 27.4062C413.438 21.2656 412.969 16.7188 412.031 13.7656C411.117 10.8125 409.172 9.33594 406.195 9.33594C403.219 9.33594 401.25 10.8125 400.289 13.7656C399.328 16.7188 398.848 21.2656 398.848 27.4062C398.848 33.2656 399.328 37.7539 400.289 40.8711C401.25 43.9648 403.219 45.5117 406.195 45.5117C409.172 45.5117 411.129 43.9531 412.066 40.8359Z" fill="white"/>
<path d="M24.9961 199.402H14.7305V164.246H2.74219V157.426C5.90625 157.285 8.12109 157.074 9.38672 156.793C11.4023 156.348 13.043 155.457 14.3086 154.121C15.1758 153.207 15.832 151.988 16.2773 150.465C16.5352 149.551 16.6641 148.871 16.6641 148.426H24.9961V199.402Z" fill="white"/>
<path d="M61.1367 199.402H50.8711V164.246H38.8828V157.426C42.0469 157.285 44.2617 157.074 45.5273 156.793C47.543 156.348 49.1836 155.457 50.4492 154.121C51.3164 153.207 51.9727 151.988 52.418 150.465C52.6758 149.551 52.8047 148.871 52.8047 148.426H61.1367V199.402Z" fill="white"/>
<path d="M92.7773 188.926V199.402H82.125V188.926H92.7773ZM82.125 173.07V162.594H92.7773V173.07H82.125Z" fill="white"/>
<path d="M111.727 158.586C110.602 160.086 110.062 162.09 110.109 164.598H100.758C100.852 162.066 101.285 159.664 102.059 157.391C102.879 155.398 104.168 153.559 105.926 151.871C107.238 150.676 108.797 149.762 110.602 149.129C112.406 148.496 114.621 148.18 117.246 148.18C122.121 148.18 126.047 149.445 129.023 151.977C132.023 154.484 133.523 157.859 133.523 162.102C133.523 165.102 132.633 167.633 130.852 169.695C129.727 170.984 128.555 171.863 127.336 172.332C128.25 172.332 129.562 173.117 131.273 174.688C133.828 177.055 135.105 180.289 135.105 184.391C135.105 188.703 133.605 192.5 130.605 195.781C127.629 199.039 123.211 200.668 117.352 200.668C110.133 200.668 105.117 198.312 102.305 193.602C100.828 191.094 100.008 187.812 99.8438 183.758H109.688C109.688 185.797 110.016 187.484 110.672 188.82C111.891 191.281 114.105 192.512 117.316 192.512C119.285 192.512 120.996 191.844 122.449 190.508C123.926 189.148 124.664 187.203 124.664 184.672C124.664 181.32 123.305 179.082 120.586 177.957C119.039 177.324 116.602 177.008 113.273 177.008V169.836C116.531 169.789 118.805 169.473 120.094 168.887C122.32 167.902 123.434 165.91 123.434 162.91C123.434 160.965 122.859 159.383 121.711 158.164C120.586 156.945 118.992 156.336 116.93 156.336C114.562 156.336 112.828 157.086 111.727 158.586Z" fill="white"/>
<path d="M157.852 200.668C151.359 200.668 146.801 198.395 144.176 193.848C141.574 189.301 140.273 182.82 140.273 174.406C140.273 165.992 141.574 159.5 144.176 154.93C146.801 150.359 151.359 148.074 157.852 148.074C164.344 148.074 168.902 150.359 171.527 154.93C174.129 159.5 175.43 165.992 175.43 174.406C175.43 182.82 174.117 189.301 171.492 193.848C168.891 198.395 164.344 200.668 157.852 200.668ZM163.723 187.836C164.637 184.742 165.094 180.266 165.094 174.406C165.094 168.266 164.625 163.719 163.688 160.766C162.773 157.812 160.828 156.336 157.852 156.336C154.875 156.336 152.906 157.812 151.945 160.766C150.984 163.719 150.504 168.266 150.504 174.406C150.504 180.266 150.984 184.754 151.945 187.871C152.906 190.965 154.875 192.512 157.852 192.512C160.828 192.512 162.785 190.953 163.723 187.836Z" fill="white"/>
<path d="M199.793 174.582H219.973V184.074H199.793V174.582Z" fill="white"/>
<path d="M261.984 200.668C255.492 200.668 250.934 198.395 248.309 193.848C245.707 189.301 244.406 182.82 244.406 174.406C244.406 165.992 245.707 159.5 248.309 154.93C250.934 150.359 255.492 148.074 261.984 148.074C268.477 148.074 273.035 150.359 275.66 154.93C278.262 159.5 279.562 165.992 279.562 174.406C279.562 182.82 278.25 189.301 275.625 193.848C273.023 198.395 268.477 200.668 261.984 200.668ZM267.855 187.836C268.77 184.742 269.227 180.266 269.227 174.406C269.227 168.266 268.758 163.719 267.82 160.766C266.906 157.812 264.961 156.336 261.984 156.336C259.008 156.336 257.039 157.812 256.078 160.766C255.117 163.719 254.637 168.266 254.637 174.406C254.637 180.266 255.117 184.754 256.078 187.871C257.039 190.965 259.008 192.512 261.984 192.512C264.961 192.512 266.918 190.953 267.855 187.836Z" fill="white"/>
<path d="M309.48 199.402H299.215V164.246H287.227V157.426C290.391 157.285 292.605 157.074 293.871 156.793C295.887 156.348 297.527 155.457 298.793 154.121C299.66 153.207 300.316 151.988 300.762 150.465C301.02 149.551 301.148 148.871 301.148 148.426H309.48V199.402Z" fill="white"/>
<path d="M341.121 188.926V199.402H330.469V188.926H341.121ZM330.469 173.07V162.594H341.121V173.07H330.469Z" fill="white"/>
<path d="M366.117 200.668C359.625 200.668 355.066 198.395 352.441 193.848C349.84 189.301 348.539 182.82 348.539 174.406C348.539 165.992 349.84 159.5 352.441 154.93C355.066 150.359 359.625 148.074 366.117 148.074C372.609 148.074 377.168 150.359 379.793 154.93C382.395 159.5 383.695 165.992 383.695 174.406C383.695 182.82 382.383 189.301 379.758 193.848C377.156 198.395 372.609 200.668 366.117 200.668ZM371.988 187.836C372.902 184.742 373.359 180.266 373.359 174.406C373.359 168.266 372.891 163.719 371.953 160.766C371.039 157.812 369.094 156.336 366.117 156.336C363.141 156.336 361.172 157.812 360.211 160.766C359.25 163.719 358.77 168.266 358.77 174.406C358.77 180.266 359.25 184.754 360.211 187.871C361.172 190.965 363.141 192.512 366.117 192.512C369.094 192.512 371.051 190.953 371.988 187.836Z" fill="white"/>
<path d="M406.195 200.668C399.703 200.668 395.145 198.395 392.52 193.848C389.918 189.301 388.617 182.82 388.617 174.406C388.617 165.992 389.918 159.5 392.52 154.93C395.145 150.359 399.703 148.074 406.195 148.074C412.688 148.074 417.246 150.359 419.871 154.93C422.473 159.5 423.773 165.992 423.773 174.406C423.773 182.82 422.461 189.301 419.836 193.848C417.234 198.395 412.688 200.668 406.195 200.668ZM412.066 187.836C412.98 184.742 413.438 180.266 413.438 174.406C413.438 168.266 412.969 163.719 412.031 160.766C411.117 157.812 409.172 156.336 406.195 156.336C403.219 156.336 401.25 157.812 400.289 160.766C399.328 163.719 398.848 168.266 398.848 174.406C398.848 180.266 399.328 184.754 400.289 187.871C401.25 190.965 403.219 192.512 406.195 192.512C409.172 192.512 411.129 190.953 412.066 187.836Z" fill="white"/>
<path d="M18.5781 347.668C12.0859 347.668 7.52734 345.395 4.90234 340.848C2.30078 336.301 1 329.82 1 321.406C1 312.992 2.30078 306.5 4.90234 301.93C7.52734 297.359 12.0859 295.074 18.5781 295.074C25.0703 295.074 29.6289 297.359 32.2539 301.93C34.8555 306.5 36.1562 312.992 36.1562 321.406C36.1562 329.82 34.8438 336.301 32.2188 340.848C29.6172 345.395 25.0703 347.668 18.5781 347.668ZM24.4492 334.836C25.3633 331.742 25.8203 327.266 25.8203 321.406C25.8203 315.266 25.3516 310.719 24.4141 307.766C23.5 304.812 21.5547 303.336 18.5781 303.336C15.6016 303.336 13.6328 304.812 12.6719 307.766C11.7109 310.719 11.2305 315.266 11.2305 321.406C11.2305 327.266 11.7109 331.754 12.6719 334.871C13.6328 337.965 15.6016 339.512 18.5781 339.512C21.5547 339.512 23.5117 337.953 24.4492 334.836Z" fill="white"/>
<path d="M66.0742 346.402H55.8086V311.246H43.8203V304.426C46.9844 304.285 49.1992 304.074 50.4648 303.793C52.4805 303.348 54.1211 302.457 55.3867 301.121C56.2539 300.207 56.9102 298.988 57.3555 297.465C57.6133 296.551 57.7422 295.871 57.7422 295.426H66.0742V346.402Z" fill="white"/>
<path d="M97.7148 335.926V346.402H87.0625V335.926H97.7148ZM87.0625 320.07V309.594H97.7148V320.07H87.0625Z" fill="white"/>
<path d="M122.711 347.668C116.219 347.668 111.66 345.395 109.035 340.848C106.434 336.301 105.133 329.82 105.133 321.406C105.133 312.992 106.434 306.5 109.035 301.93C111.66 297.359 116.219 295.074 122.711 295.074C129.203 295.074 133.762 297.359 136.387 301.93C138.988 306.5 140.289 312.992 140.289 321.406C140.289 329.82 138.977 336.301 136.352 340.848C133.75 345.395 129.203 347.668 122.711 347.668ZM128.582 334.836C129.496 331.742 129.953 327.266 129.953 321.406C129.953 315.266 129.484 310.719 128.547 307.766C127.633 304.812 125.688 303.336 122.711 303.336C119.734 303.336 117.766 304.812 116.805 307.766C115.844 310.719 115.363 315.266 115.363 321.406C115.363 327.266 115.844 331.754 116.805 334.871C117.766 337.965 119.734 339.512 122.711 339.512C125.688 339.512 127.645 337.953 128.582 334.836Z" fill="white"/>
<path d="M162.789 347.668C156.297 347.668 151.738 345.395 149.113 340.848C146.512 336.301 145.211 329.82 145.211 321.406C145.211 312.992 146.512 306.5 149.113 301.93C151.738 297.359 156.297 295.074 162.789 295.074C169.281 295.074 173.84 297.359 176.465 301.93C179.066 306.5 180.367 312.992 180.367 321.406C180.367 329.82 179.055 336.301 176.43 340.848C173.828 345.395 169.281 347.668 162.789 347.668ZM168.66 334.836C169.574 331.742 170.031 327.266 170.031 321.406C170.031 315.266 169.562 310.719 168.625 307.766C167.711 304.812 165.766 303.336 162.789 303.336C159.812 303.336 157.844 304.812 156.883 307.766C155.922 310.719 155.441 315.266 155.441 321.406C155.441 327.266 155.922 331.754 156.883 334.871C157.844 337.965 159.812 339.512 162.789 339.512C165.766 339.512 167.723 337.953 168.66 334.836Z" fill="white"/>
<path d="M204.73 321.582H224.91V331.074H204.73V321.582Z" fill="white"/>
<path d="M266.922 347.668C260.43 347.668 255.871 345.395 253.246 340.848C250.645 336.301 249.344 329.82 249.344 321.406C249.344 312.992 250.645 306.5 253.246 301.93C255.871 297.359 260.43 295.074 266.922 295.074C273.414 295.074 277.973 297.359 280.598 301.93C283.199 306.5 284.5 312.992 284.5 321.406C284.5 329.82 283.188 336.301 280.562 340.848C277.961 345.395 273.414 347.668 266.922 347.668ZM272.793 334.836C273.707 331.742 274.164 327.266 274.164 321.406C274.164 315.266 273.695 310.719 272.758 307.766C271.844 304.812 269.898 303.336 266.922 303.336C263.945 303.336 261.977 304.812 261.016 307.766C260.055 310.719 259.574 315.266 259.574 321.406C259.574 327.266 260.055 331.754 261.016 334.871C261.977 337.965 263.945 339.512 266.922 339.512C269.898 339.512 271.855 337.953 272.793 334.836Z" fill="white"/>
<path d="M300.953 305.586C299.828 307.086 299.289 309.09 299.336 311.598H289.984C290.078 309.066 290.512 306.664 291.285 304.391C292.105 302.398 293.395 300.559 295.152 298.871C296.465 297.676 298.023 296.762 299.828 296.129C301.633 295.496 303.848 295.18 306.473 295.18C311.348 295.18 315.273 296.445 318.25 298.977C321.25 301.484 322.75 304.859 322.75 309.102C322.75 312.102 321.859 314.633 320.078 316.695C318.953 317.984 317.781 318.863 316.562 319.332C317.477 319.332 318.789 320.117 320.5 321.688C323.055 324.055 324.332 327.289 324.332 331.391C324.332 335.703 322.832 339.5 319.832 342.781C316.855 346.039 312.438 347.668 306.578 347.668C299.359 347.668 294.344 345.312 291.531 340.602C290.055 338.094 289.234 334.812 289.07 330.758H298.914C298.914 332.797 299.242 334.484 299.898 335.82C301.117 338.281 303.332 339.512 306.543 339.512C308.512 339.512 310.223 338.844 311.676 337.508C313.152 336.148 313.891 334.203 313.891 331.672C313.891 328.32 312.531 326.082 309.812 324.957C308.266 324.324 305.828 324.008 302.5 324.008V316.836C305.758 316.789 308.031 316.473 309.32 315.887C311.547 314.902 312.66 312.91 312.66 309.91C312.66 307.965 312.086 306.383 310.938 305.164C309.812 303.945 308.219 303.336 306.156 303.336C303.789 303.336 302.055 304.086 300.953 305.586Z" fill="white"/>
<path d="M346.059 335.926V346.402H335.406V335.926H346.059ZM335.406 320.07V309.594H346.059V320.07H335.406Z" fill="white"/>
<path d="M371.055 347.668C364.562 347.668 360.004 345.395 357.379 340.848C354.777 336.301 353.477 329.82 353.477 321.406C353.477 312.992 354.777 306.5 357.379 301.93C360.004 297.359 364.562 295.074 371.055 295.074C377.547 295.074 382.105 297.359 384.73 301.93C387.332 306.5 388.633 312.992 388.633 321.406C388.633 329.82 387.32 336.301 384.695 340.848C382.094 345.395 377.547 347.668 371.055 347.668ZM376.926 334.836C377.84 331.742 378.297 327.266 378.297 321.406C378.297 315.266 377.828 310.719 376.891 307.766C375.977 304.812 374.031 303.336 371.055 303.336C368.078 303.336 366.109 304.812 365.148 307.766C364.188 310.719 363.707 315.266 363.707 321.406C363.707 327.266 364.188 331.754 365.148 334.871C366.109 337.965 368.078 339.512 371.055 339.512C374.031 339.512 375.988 337.953 376.926 334.836Z" fill="white"/>
<path d="M411.133 347.668C404.641 347.668 400.082 345.395 397.457 340.848C394.855 336.301 393.555 329.82 393.555 321.406C393.555 312.992 394.855 306.5 397.457 301.93C400.082 297.359 404.641 295.074 411.133 295.074C417.625 295.074 422.184 297.359 424.809 301.93C427.41 306.5 428.711 312.992 428.711 321.406C428.711 329.82 427.398 336.301 424.773 340.848C422.172 345.395 417.625 347.668 411.133 347.668ZM417.004 334.836C417.918 331.742 418.375 327.266 418.375 321.406C418.375 315.266 417.906 310.719 416.969 307.766C416.055 304.812 414.109 303.336 411.133 303.336C408.156 303.336 406.188 304.812 405.227 307.766C404.266 310.719 403.785 315.266 403.785 321.406C403.785 327.266 404.266 331.754 405.227 334.871C406.188 337.965 408.156 339.512 411.133 339.512C414.109 339.512 416.066 337.953 417.004 334.836Z" fill="white"/>
<path d="M702.742 0.582031H713.57V43.0859H739.234V52.4023H702.742V0.582031Z" fill="white"/>
<path d="M777.098 41.75H758.008L754.422 52.4023H743.102L761.594 0.582031H773.828L792.18 52.4023H780.438L777.098 41.75ZM774.074 32.8203L767.605 12.4297L760.926 32.8203H774.074Z" fill="white"/>
<path d="M821.113 52.4023H798.789V0.582031H821.113C824.324 0.628906 826.996 1.00391 829.129 1.70703C832.762 2.90234 835.703 5.09375 837.953 8.28125C839.758 10.8594 840.988 13.6484 841.645 16.6484C842.301 19.6484 842.629 22.5078 842.629 25.2266C842.629 32.1172 841.246 37.9531 838.48 42.7344C834.73 49.1797 828.941 52.4023 821.113 52.4023ZM829.164 13.8008C827.5 10.9883 824.207 9.58203 819.285 9.58203H809.301V43.4023H819.285C824.395 43.4023 827.957 40.8828 829.973 35.8438C831.074 33.0781 831.625 29.7852 831.625 25.9648C831.625 20.6914 830.805 16.6367 829.164 13.8008Z" fill="white"/>
<path d="M849.977 0.582031H860.734V52.4023H849.977V0.582031Z" fill="white"/>
<path d="M906.93 29.7617H881.758V43.0859H910.445V52.4023H871.176V0.582031H909.18V9.75781H881.758V20.7617H906.93V29.7617Z" fill="white"/>
<path d="M955.551 52.4023H915.227V43.2617L941.98 9.75781H915.895V0.582031H955.48V9.26562L928.375 43.2617H955.551V52.4023Z" fill="white"/>
<path d="M1005.26 52.4023H982.938V0.582031H1005.26C1008.47 0.628906 1011.14 1.00391 1013.28 1.70703C1016.91 2.90234 1019.85 5.09375 1022.1 8.28125C1023.91 10.8594 1025.14 13.6484 1025.79 16.6484C1026.45 19.6484 1026.78 22.5078 1026.78 25.2266C1026.78 32.1172 1025.39 37.9531 1022.63 42.7344C1018.88 49.1797 1013.09 52.4023 1005.26 52.4023ZM1013.31 13.8008C1011.65 10.9883 1008.36 9.58203 1003.43 9.58203H993.449V43.4023H1003.43C1008.54 43.4023 1012.11 40.8828 1014.12 35.8438C1015.22 33.0781 1015.77 29.7852 1015.77 25.9648C1015.77 20.6914 1014.95 16.6367 1013.31 13.8008Z" fill="white"/>
<path d="M1056.98 32.082H1045.8V52.4023H1035.21V0.582031H1060.63C1064.27 0.652344 1067.05 1.09766 1069 1.91797C1070.97 2.73828 1072.63 3.94531 1073.99 5.53906C1075.12 6.85156 1076.01 8.30469 1076.66 9.89844C1077.32 11.4922 1077.65 13.3086 1077.65 15.3477C1077.65 17.8086 1077.03 20.2344 1075.79 22.625C1074.54 24.9922 1072.49 26.668 1069.63 27.6523C1072.02 28.6133 1073.71 29.9844 1074.7 31.7656C1075.7 33.5234 1076.21 36.2188 1076.21 39.8516V43.332C1076.21 45.6992 1076.3 47.3047 1076.49 48.1484C1076.77 49.4844 1077.43 50.4688 1078.46 51.1016V52.4023H1066.54C1066.21 51.2539 1065.98 50.3281 1065.84 49.625C1065.55 48.1719 1065.4 46.6836 1065.38 45.1602L1065.31 40.3438C1065.26 37.0391 1064.65 34.8359 1063.48 33.7344C1062.33 32.6328 1060.16 32.082 1056.98 32.082ZM1063.55 22.6602C1065.71 21.6758 1066.79 19.7305 1066.79 16.8242C1066.79 13.6836 1065.74 11.5742 1063.66 10.4961C1062.48 9.88672 1060.73 9.58203 1058.38 9.58203H1045.8V23.5039H1058.07C1060.5 23.5039 1062.33 23.2227 1063.55 22.6602Z" fill="white"/>
<path d="M1086.16 0.582031H1096.91V52.4023H1086.16V0.582031Z" fill="white"/>
<path d="M1148.95 52.4023H1138.12L1116.95 15.5938V52.4023H1106.86V0.582031H1118.22L1138.86 36.7578V0.582031H1148.95V52.4023Z" fill="white"/>
<path d="M1204.98 52.4023H1191.06L1175.07 29.7617L1169.9 35.0703V52.4023H1159.25V0.582031H1169.9V21.9219L1189.9 0.582031H1203.89L1182.66 21.9219L1204.98 52.4023Z" fill="white"/>
<path d="M1267.88 9.75781H1241.9V21.6758H1264.64V30.6758H1241.9V52.4023H1231.14V0.652344H1267.88V9.75781Z" fill="white"/>
<path d="M1297.16 32.082H1285.98V52.4023H1275.4V0.582031H1300.82C1304.45 0.652344 1307.24 1.09766 1309.19 1.91797C1311.16 2.73828 1312.82 3.94531 1314.18 5.53906C1315.3 6.85156 1316.2 8.30469 1316.85 9.89844C1317.51 11.4922 1317.84 13.3086 1317.84 15.3477C1317.84 17.8086 1317.21 20.2344 1315.97 22.625C1314.73 24.9922 1312.68 26.668 1309.82 27.6523C1312.21 28.6133 1313.9 29.9844 1314.88 31.7656C1315.89 33.5234 1316.39 36.2188 1316.39 39.8516V43.332C1316.39 45.6992 1316.49 47.3047 1316.68 48.1484C1316.96 49.4844 1317.61 50.4688 1318.64 51.1016V52.4023H1306.73C1306.4 51.2539 1306.16 50.3281 1306.02 49.625C1305.74 48.1719 1305.59 46.6836 1305.57 45.1602L1305.5 40.3438C1305.45 37.0391 1304.84 34.8359 1303.67 33.7344C1302.52 32.6328 1300.35 32.082 1297.16 32.082ZM1303.74 22.6602C1305.89 21.6758 1306.97 19.7305 1306.97 16.8242C1306.97 13.6836 1305.93 11.5742 1303.84 10.4961C1302.67 9.88672 1300.91 9.58203 1298.57 9.58203H1285.98V23.5039H1298.25C1300.69 23.5039 1302.52 23.2227 1303.74 22.6602Z" fill="white"/>
<path d="M1363.26 29.7617H1338.09V43.0859H1366.77V52.4023H1327.5V0.582031H1365.51V9.75781H1338.09V20.7617H1363.26V29.7617Z" fill="white"/>
<path d="M1411.28 29.7617H1386.11V43.0859H1414.8V52.4023H1375.53V0.582031H1413.53V9.75781H1386.11V20.7617H1411.28V29.7617Z" fill="white"/>
<path d="M1008.95 180.77H997.949V199.402H987.191V147.582H1009.76C1014.96 147.582 1019.11 148.918 1022.21 151.59C1025.3 154.262 1026.85 158.398 1026.85 164C1026.85 170.117 1025.3 174.441 1022.21 176.973C1019.11 179.504 1014.7 180.77 1008.95 180.77ZM1014.02 169.977C1015.42 168.734 1016.12 166.766 1016.12 164.07C1016.12 161.375 1015.41 159.453 1013.98 158.305C1012.57 157.156 1010.59 156.582 1008.04 156.582H997.949V171.84H1008.04C1010.59 171.84 1012.59 171.219 1014.02 169.977Z" fill="white"/>
<path d="M1059.96 188.75H1040.88L1037.29 199.402H1025.97L1044.46 147.582H1056.7L1075.05 199.402H1063.3L1059.96 188.75ZM1056.94 179.82L1050.47 159.43L1043.79 179.82H1056.94Z" fill="white"/>
<path d="M1103.66 179.082H1092.48V199.402H1081.9V147.582H1107.32C1110.95 147.652 1113.74 148.098 1115.69 148.918C1117.66 149.738 1119.32 150.945 1120.68 152.539C1121.8 153.852 1122.7 155.305 1123.35 156.898C1124.01 158.492 1124.34 160.309 1124.34 162.348C1124.34 164.809 1123.71 167.234 1122.47 169.625C1121.23 171.992 1119.18 173.668 1116.32 174.652C1118.71 175.613 1120.4 176.984 1121.38 178.766C1122.39 180.523 1122.89 183.219 1122.89 186.852V190.332C1122.89 192.699 1122.99 194.305 1123.18 195.148C1123.46 196.484 1124.11 197.469 1125.14 198.102V199.402H1113.23C1112.9 198.254 1112.66 197.328 1112.52 196.625C1112.24 195.172 1112.09 193.684 1112.07 192.16L1112 187.344C1111.95 184.039 1111.34 181.836 1110.17 180.734C1109.02 179.633 1106.85 179.082 1103.66 179.082ZM1110.24 169.66C1112.39 168.676 1113.47 166.73 1113.47 163.824C1113.47 160.684 1112.43 158.574 1110.34 157.496C1109.17 156.887 1107.41 156.582 1105.07 156.582H1092.48V170.504H1104.75C1107.19 170.504 1109.02 170.223 1110.24 169.66Z" fill="white"/>
<path d="M1132.84 147.582H1143.6V199.402H1132.84V147.582Z" fill="white"/>
<path d="M1172.54 191.914C1175.09 191.914 1177.16 191.633 1178.76 191.07C1181.78 189.992 1183.29 187.988 1183.29 185.059C1183.29 183.348 1182.54 182.023 1181.04 181.086C1179.54 180.172 1177.19 179.363 1173.98 178.66L1168.49 177.43C1163.1 176.211 1159.38 174.887 1157.31 173.457C1153.82 171.066 1152.07 167.328 1152.07 162.242C1152.07 157.602 1153.76 153.746 1157.14 150.676C1160.51 147.605 1165.47 146.07 1172.01 146.07C1177.47 146.07 1182.12 147.523 1185.96 150.43C1189.83 153.312 1191.86 157.508 1192.05 163.016H1181.64C1181.45 159.898 1180.09 157.684 1177.56 156.371C1175.88 155.504 1173.78 155.07 1171.27 155.07C1168.48 155.07 1166.25 155.633 1164.59 156.758C1162.93 157.883 1162.09 159.453 1162.09 161.469C1162.09 163.32 1162.91 164.703 1164.55 165.617C1165.61 166.227 1167.86 166.941 1171.3 167.762L1180.23 169.906C1184.15 170.844 1187.1 172.098 1189.09 173.668C1192.19 176.105 1193.73 179.633 1193.73 184.25C1193.73 188.984 1191.92 192.922 1188.29 196.062C1184.68 199.18 1179.57 200.738 1172.96 200.738C1166.21 200.738 1160.9 199.203 1157.03 196.133C1153.16 193.039 1151.23 188.797 1151.23 183.406H1161.57C1161.89 185.773 1162.54 187.543 1163.5 188.715C1165.26 190.848 1168.27 191.914 1172.54 191.914Z" fill="white"/>
<path d="M1249.46 188.75H1230.37L1226.78 199.402H1215.46L1233.95 147.582H1246.19L1264.54 199.402H1252.8L1249.46 188.75ZM1246.43 179.82L1239.96 159.43L1233.29 179.82H1246.43Z" fill="white"/>
<path d="M1293.47 199.402H1271.15V147.582H1293.47C1296.68 147.629 1299.36 148.004 1301.49 148.707C1305.12 149.902 1308.06 152.094 1310.31 155.281C1312.12 157.859 1313.35 160.648 1314 163.648C1314.66 166.648 1314.99 169.508 1314.99 172.227C1314.99 179.117 1313.61 184.953 1310.84 189.734C1307.09 196.18 1301.3 199.402 1293.47 199.402ZM1301.52 160.801C1299.86 157.988 1296.57 156.582 1291.64 156.582H1281.66V190.402H1291.64C1296.75 190.402 1300.32 187.883 1302.33 182.844C1303.43 180.078 1303.98 176.785 1303.98 172.965C1303.98 167.691 1303.16 163.637 1301.52 160.801Z" fill="white"/>
<path d="M1359.25 176.762H1334.08V190.086H1362.77V199.402H1323.5V147.582H1361.5V156.758H1334.08V167.762H1359.25V176.762Z" fill="white"/>
<path d="M1413.11 199.402H1402.28L1381.12 162.594V199.402H1371.03V147.582H1382.38L1403.02 183.758V147.582H1413.11V199.402Z" fill="white"/>
<path d="M859.133 346.402H848.305L827.141 309.594V346.402H817.051V294.582H828.406L849.043 330.758V294.582H859.133V346.402Z" fill="white"/>
<path d="M905.328 323.762H880.156V337.086H908.844V346.402H869.574V294.582H907.578V303.758H880.156V314.762H905.328V323.762Z" fill="white"/>
<path d="M967.695 294.582H978.699L964.109 346.402H953.773L947.516 316.098L945.688 306.078L943.859 316.098L937.602 346.402H927.547L912.852 294.582H924.348L931.203 324.254L932.68 332.516L934.191 324.43L940.027 294.582H951.453L957.605 324.254L959.188 332.516L960.77 324.57L967.695 294.582Z" fill="white"/>
<path d="M1047.22 346.402H1036.39L1015.23 309.594V346.402H1005.14V294.582H1016.49L1037.13 330.758V294.582H1047.22V346.402Z" fill="white"/>
<path d="M1080.27 347.844C1072.86 347.844 1067.2 345.828 1063.29 341.797C1058.04 336.852 1055.41 329.727 1055.41 320.422C1055.41 310.93 1058.04 303.805 1063.29 299.047C1067.2 295.016 1072.86 293 1080.27 293C1087.67 293 1093.33 295.016 1097.25 299.047C1102.47 303.805 1105.09 310.93 1105.09 320.422C1105.09 329.727 1102.47 336.852 1097.25 341.797C1093.33 345.828 1087.67 347.844 1080.27 347.844ZM1090.5 333.922C1093 330.758 1094.26 326.258 1094.26 320.422C1094.26 314.609 1092.99 310.121 1090.46 306.957C1087.95 303.77 1084.55 302.176 1080.27 302.176C1075.98 302.176 1072.55 303.758 1070 306.922C1067.45 310.086 1066.17 314.586 1066.17 320.422C1066.17 326.258 1067.45 330.758 1070 333.922C1072.55 337.086 1075.98 338.668 1080.27 338.668C1084.55 338.668 1087.96 337.086 1090.5 333.922Z" fill="white"/>
<path d="M1132.19 338.914C1134.75 338.914 1136.82 338.633 1138.41 338.07C1141.44 336.992 1142.95 334.988 1142.95 332.059C1142.95 330.348 1142.2 329.023 1140.7 328.086C1139.2 327.172 1136.84 326.363 1133.63 325.66L1128.15 324.43C1122.76 323.211 1119.03 321.887 1116.97 320.457C1113.48 318.066 1111.73 314.328 1111.73 309.242C1111.73 304.602 1113.42 300.746 1116.79 297.676C1120.17 294.605 1125.12 293.07 1131.66 293.07C1137.12 293.07 1141.78 294.523 1145.62 297.43C1149.49 300.312 1151.52 304.508 1151.7 310.016H1141.3C1141.11 306.898 1139.75 304.684 1137.22 303.371C1135.53 302.504 1133.43 302.07 1130.93 302.07C1128.14 302.07 1125.91 302.633 1124.25 303.758C1122.58 304.883 1121.75 306.453 1121.75 308.469C1121.75 310.32 1122.57 311.703 1124.21 312.617C1125.27 313.227 1127.52 313.941 1130.96 314.762L1139.89 316.906C1143.8 317.844 1146.76 319.098 1148.75 320.668C1151.84 323.105 1153.39 326.633 1153.39 331.25C1153.39 335.984 1151.57 339.922 1147.94 343.062C1144.33 346.18 1139.22 347.738 1132.61 347.738C1125.86 347.738 1120.55 346.203 1116.69 343.133C1112.82 340.039 1110.89 335.797 1110.89 330.406H1121.22C1121.55 332.773 1122.2 334.543 1123.16 335.715C1124.91 337.848 1127.93 338.914 1132.19 338.914Z" fill="white"/>
<path d="M1199.06 294.582V303.758H1183.55V346.402H1172.66V303.758H1157.08V294.582H1199.06Z" fill="white"/>
<path d="M1230.42 335.75H1211.33L1207.74 346.402H1196.42L1214.91 294.582H1227.15L1245.5 346.402H1233.76L1230.42 335.75ZM1227.39 326.82L1220.93 306.43L1214.25 326.82H1227.39Z" fill="white"/>
<path d="M1252.11 294.582H1262.94V337.086H1288.6V346.402H1252.11V294.582Z" fill="white"/>
<path d="M1327.91 345.137C1325.05 346.895 1321.53 347.773 1317.36 347.773C1310.49 347.773 1304.87 345.395 1300.48 340.637C1295.91 335.855 1293.63 329.316 1293.63 321.02C1293.63 312.629 1295.94 305.902 1300.55 300.84C1305.17 295.777 1311.28 293.246 1318.87 293.246C1325.46 293.246 1330.74 294.922 1334.73 298.273C1338.73 301.602 1341.03 305.762 1341.62 310.754H1330.96C1330.14 307.215 1328.14 304.742 1324.95 303.336C1323.17 302.562 1321.19 302.176 1319.01 302.176C1314.84 302.176 1311.41 303.758 1308.71 306.922C1306.04 310.062 1304.7 314.797 1304.7 321.125C1304.7 327.5 1306.16 332.012 1309.06 334.66C1311.97 337.309 1315.27 338.633 1318.98 338.633C1322.61 338.633 1325.59 337.59 1327.91 335.504C1330.23 333.395 1331.66 330.641 1332.2 327.242H1320.21V318.594H1341.79V346.402H1334.62L1333.53 339.934C1331.45 342.395 1329.57 344.129 1327.91 345.137Z" fill="white"/>
<path d="M1351.32 294.582H1362.08V346.402H1351.32V294.582Z" fill="white"/>
<path d="M1402.54 335.75H1383.45L1379.87 346.402H1368.55L1387.04 294.582H1399.27L1417.62 346.402H1405.88L1402.54 335.75ZM1399.52 326.82L1393.05 306.43L1386.37 326.82H1399.52Z" fill="white"/>
</svg>
